<svg width="190" height="61" viewBox="0 0 190 61" fill="none" xmlns="http://www.w3.org/2000/svg">
<path d="M1 57L1 4.35062C23.3089 11.1908 38.5848 17.6465 50.3472 25.8169C61.8845 33.831 70.0969 43.534 78.2366 57H1Z" fill="#FBB30B" stroke="white" stroke-width="2"/>
<path d="M79 57L79 4.45245C61.3462 11.2399 49.2478 17.6528 39.9214 25.7507C30.6928 33.7638 24.1166 43.4807 17.5867 57H79Z" fill="#565D74" stroke="white" stroke-width="2"/>
<path d="M110.525 21.7273V27.4091H94.1009V21.7273H110.525ZM97.8295 15.1932H105.393V40.6193C105.393 41.3177 105.5 41.8622 105.713 42.2528C105.926 42.6316 106.222 42.898 106.601 43.0518C106.991 43.2057 107.441 43.2827 107.95 43.2827C108.305 43.2827 108.661 43.2531 109.016 43.1939C109.371 43.1229 109.643 43.0696 109.832 43.0341L111.022 48.6626C110.643 48.781 110.111 48.9171 109.424 49.071C108.737 49.2367 107.903 49.3374 106.92 49.3729C105.098 49.4439 103.5 49.2012 102.126 48.6449C100.765 48.0885 99.7057 47.2244 98.9482 46.0526C98.1906 44.8807 97.8177 43.401 97.8295 41.6136V15.1932ZM127.588 49.5327C124.783 49.5327 122.368 48.9645 120.344 47.8281C118.331 46.6799 116.781 45.0582 115.692 42.9631C114.603 40.8561 114.058 38.3643 114.058 35.4879C114.058 32.6825 114.603 30.2204 115.692 28.1016C116.781 25.9827 118.314 24.3314 120.29 23.1477C122.279 21.964 124.611 21.3722 127.286 21.3722C129.085 21.3722 130.76 21.6622 132.311 22.2422C133.874 22.8104 135.235 23.6686 136.395 24.8168C137.567 25.965 138.478 27.4091 139.129 29.1491C139.78 30.8774 140.106 32.9015 140.106 35.2216V37.299H117.077V32.6115H132.986C132.986 31.5225 132.749 30.5578 132.276 29.7173C131.802 28.8769 131.145 28.2199 130.305 27.7464C129.476 27.2611 128.511 27.0185 127.411 27.0185C126.262 27.0185 125.244 27.2848 124.357 27.8175C123.481 28.3383 122.794 29.0426 122.297 29.9304C121.8 30.8063 121.545 31.7829 121.533 32.8601V37.3168C121.533 38.6662 121.782 39.8321 122.279 40.8146C122.788 41.7971 123.504 42.5547 124.428 43.0874C125.351 43.62 126.446 43.8864 127.712 43.8864C128.553 43.8864 129.322 43.768 130.021 43.5312C130.719 43.2945 131.317 42.9394 131.814 42.4659C132.311 41.9924 132.69 41.4124 132.95 40.7259L139.946 41.1875C139.591 42.8684 138.863 44.3362 137.762 45.5909C136.673 46.8338 135.264 47.8045 133.536 48.5028C131.82 49.1894 129.837 49.5327 127.588 49.5327ZM167.734 29.5043L160.809 29.9304C160.691 29.3385 160.436 28.8059 160.045 28.3324C159.655 27.8471 159.14 27.4624 158.501 27.1783C157.873 26.8823 157.122 26.7344 156.246 26.7344C155.074 26.7344 154.085 26.983 153.281 27.4801C152.476 27.9654 152.073 28.6165 152.073 29.4332C152.073 30.0843 152.334 30.6347 152.854 31.0845C153.375 31.5343 154.269 31.8954 155.536 32.1676L160.472 33.1619C163.123 33.7064 165.1 34.5824 166.402 35.7898C167.704 36.9972 168.355 38.5833 168.355 40.5483C168.355 42.3357 167.828 43.9041 166.775 45.2536C165.733 46.603 164.301 47.6565 162.478 48.4141C160.667 49.1598 158.578 49.5327 156.21 49.5327C152.6 49.5327 149.723 48.781 147.581 47.2777C145.45 45.7625 144.201 43.7029 143.835 41.0987L151.274 40.7081C151.499 41.8089 152.044 42.6494 152.908 43.2294C153.772 43.7976 154.879 44.0817 156.228 44.0817C157.554 44.0817 158.619 43.8272 159.424 43.3182C160.241 42.7973 160.655 42.1286 160.667 41.3118C160.655 40.6252 160.365 40.063 159.797 39.625C159.229 39.1752 158.353 38.8319 157.169 38.5952L152.446 37.6541C149.783 37.1214 147.8 36.1982 146.498 34.8842C145.208 33.5703 144.562 31.8954 144.562 29.8594C144.562 28.1075 145.036 26.5982 145.983 25.3317C146.942 24.0651 148.285 23.0885 150.013 22.402C151.754 21.7154 153.79 21.3722 156.121 21.3722C159.566 21.3722 162.277 22.1001 164.254 23.5561C166.242 25.0121 167.402 26.9948 167.734 29.5043ZM187.624 21.7273V27.4091H171.2V21.7273H187.624ZM174.929 15.1932H182.493V40.6193C182.493 41.3177 182.6 41.8622 182.813 42.2528C183.026 42.6316 183.322 42.898 183.7 43.0518C184.091 43.2057 184.541 43.2827 185.05 43.2827C185.405 43.2827 185.76 43.2531 186.115 43.1939C186.47 43.1229 186.743 43.0696 186.932 43.0341L188.122 48.6626C187.743 48.781 187.21 48.9171 186.524 49.071C185.837 49.2367 185.003 49.3374 184.02 49.3729C182.197 49.4439 180.599 49.2012 179.226 48.6449C177.865 48.0885 176.805 47.2244 176.048 46.0526C175.29 44.8807 174.917 43.401 174.929 41.6136V15.1932Z" fill="#565D74"/>
</svg>
